<svg width="40" height="40" viewBox="0 0 40 40" fill="none" xmlns="http://www.w3.org/2000/svg">
<path d="M21.6667 35V36.6667H28.3333V40H11.6667V36.6667H18.3333V35H0V13.3333C0 10.5767 2.24333 8.33333 5 8.33333H8.33333V11.6667H5C4.08 11.6667 3.33333 12.415 3.33333 13.3333V31.6667H36.6667V13.3333C36.6667 12.415 35.92 11.6667 35 11.6667H31.6667V8.33333H35C37.7567 8.33333 40 10.5767 40 13.3333V35H21.6667ZM10.505 13.5483L12.865 12.1883C12.65 11.4917 12.5017 10.7667 12.5017 10C12.5017 9.23333 12.6517 8.50833 12.865 7.81167L10.505 6.45167L12.1683 3.565L14.5183 4.91833C15.5267 3.83167 16.84 3.04333 18.3333 2.70167V0H21.6667V2.70167C23.16 3.04333 24.475 3.83333 25.4833 4.92L27.835 3.565L29.4983 6.45167L27.1383 7.81167C27.3533 8.50833 27.5017 9.23333 27.5017 10C27.5017 10.7667 27.3533 11.4917 27.1383 12.1883L29.4983 13.5483L27.835 16.435L25.4833 15.08C24.475 16.1667 23.1617 16.9567 21.6667 17.2983V20H18.3333V17.2983C16.84 16.9567 15.525 16.1683 14.5183 15.0817L12.1683 16.435L10.505 13.5483ZM15.8333 10C15.8333 12.2967 17.7017 14.1667 20 14.1667C22.2983 14.1667 24.1667 12.2967 24.1667 10C24.1667 7.70333 22.2983 5.83333 20 5.83333C17.7017 5.83333 15.8333 7.70333 15.8333 10Z" fill="#1663C1"/>
</svg>
