<svg width="86" height="50" viewBox="0 0 86 50" fill="none" xmlns="http://www.w3.org/2000/svg">
<path d="M26.9015 7.45916C29.7016 3.72848 35.2984 3.72847 38.0985 7.45915L52.2381 26.298C55.7014 30.9123 52.4091 37.5 46.6396 37.5H18.3604C12.5909 37.5 9.29857 30.9124 12.7619 26.298L26.9015 7.45916Z" fill="#FABB3E"/>
<path d="M17.5656 34V20.9091H26.0798V22.897H19.9371V26.451H25.6388V28.4389H19.9371V32.0121H26.1309V34H17.5656ZM32.0404 34.1726C31.2691 34.1726 30.5787 33.9744 29.9694 33.5781C29.36 33.1818 28.8785 32.6065 28.5248 31.8523C28.1711 31.098 27.9942 30.1818 27.9942 29.1037C27.9942 28.0128 28.1732 27.0923 28.5312 26.3423C28.8934 25.5881 29.3813 25.0192 29.9949 24.6357C30.6086 24.2479 31.2925 24.054 32.0468 24.054C32.6221 24.054 33.0951 24.152 33.4658 24.348C33.8366 24.5398 34.1306 24.772 34.3479 25.0447C34.5653 25.3132 34.7336 25.5668 34.8529 25.8054H34.9488V20.9091H37.2691V34H34.9935V32.4531H34.8529C34.7336 32.6918 34.561 32.9453 34.3351 33.2138C34.1093 33.478 33.811 33.7038 33.4403 33.8913C33.0695 34.0788 32.6029 34.1726 32.0404 34.1726ZM32.686 32.2741C33.176 32.2741 33.5937 32.142 33.9388 31.8778C34.284 31.6094 34.5461 31.2365 34.7251 30.7592C34.904 30.282 34.9935 29.7259 34.9935 29.0909C34.9935 28.456 34.904 27.9041 34.7251 27.4354C34.5503 26.9666 34.2904 26.6023 33.9452 26.3423C33.6043 26.0824 33.1846 25.9524 32.686 25.9524C32.1704 25.9524 31.74 26.0866 31.3948 26.3551C31.0496 26.6236 30.7897 26.9943 30.615 27.4673C30.4403 27.9403 30.3529 28.4815 30.3529 29.0909C30.3529 29.7045 30.4403 30.2521 30.615 30.7337C30.7939 31.2109 31.056 31.5881 31.4012 31.8651C31.7506 32.1378 32.1789 32.2741 32.686 32.2741ZM45.9926 29.8707V24.1818H48.3066V34H46.0629V32.255H45.9607C45.7391 32.8047 45.3747 33.2543 44.8676 33.6037C44.3648 33.9531 43.7448 34.1278 43.0075 34.1278C42.3641 34.1278 41.7952 33.9851 41.3009 33.6996C40.8108 33.4098 40.4273 32.9901 40.1503 32.4403C39.8733 31.8864 39.7348 31.2173 39.7348 30.4332V24.1818H42.0487V30.0753C42.0487 30.6974 42.2192 31.1918 42.5601 31.5582C42.901 31.9247 43.3485 32.108 43.9024 32.108C44.2433 32.108 44.5736 32.0249 44.8932 31.8587C45.2128 31.6925 45.4749 31.4453 45.6794 31.1172C45.8882 30.7848 45.9926 30.3693 45.9926 29.8707Z" fill="#2F2F2F"/>
<path d="M55.2531 34V20.9091H60.1622C61.1679 20.9091 62.0116 21.0966 62.6934 21.4716C63.3795 21.8466 63.8973 22.3622 64.2467 23.0185C64.6004 23.6705 64.7773 24.4119 64.7773 25.2429C64.7773 26.0824 64.6004 26.8281 64.2467 27.4801C63.893 28.1321 63.371 28.6456 62.6807 29.0206C61.9903 29.3913 61.1402 29.5767 60.1302 29.5767H56.8767V27.6271H59.8106C60.3987 27.6271 60.8802 27.5249 61.2552 27.3203C61.6302 27.1158 61.9072 26.8345 62.0862 26.4766C62.2694 26.1186 62.3611 25.7074 62.3611 25.2429C62.3611 24.7784 62.2694 24.3693 62.0862 24.0156C61.9072 23.6619 61.6281 23.3871 61.2488 23.1911C60.8738 22.9908 60.3902 22.8906 59.7979 22.8906H57.6246V34H55.2531ZM69.3843 34.1982C68.7622 34.1982 68.2018 34.0874 67.7032 33.8658C67.2089 33.6399 66.8169 33.3075 66.5271 32.8686C66.2416 32.4297 66.0988 31.8885 66.0988 31.245C66.0988 30.6911 66.2011 30.233 66.4056 29.8707C66.6102 29.5085 66.8893 29.2188 67.243 29.0014C67.5967 28.7841 67.9951 28.62 68.4383 28.5092C68.8857 28.3942 69.3481 28.3111 69.8254 28.2599C70.4007 28.2003 70.8673 28.147 71.2252 28.1001C71.5832 28.049 71.8431 27.9723 72.0051 27.87C72.1713 27.7635 72.2544 27.5994 72.2544 27.3778V27.3395C72.2544 26.858 72.1116 26.4851 71.8261 26.2209C71.5406 25.9567 71.1294 25.8246 70.5924 25.8246C70.0257 25.8246 69.5761 25.9482 69.2437 26.1953C68.9156 26.4425 68.694 26.7344 68.5789 27.071L66.4184 26.7642C66.5889 26.1676 66.8701 25.669 67.2622 25.2685C67.6542 24.8636 68.1336 24.5611 68.7004 24.3608C69.2671 24.1562 69.8936 24.054 70.5796 24.054C71.0526 24.054 71.5235 24.1094 71.9923 24.2202C72.461 24.331 72.8893 24.5142 73.2771 24.7699C73.6649 25.0213 73.9759 25.3643 74.2103 25.799C74.449 26.2337 74.5683 26.777 74.5683 27.429V34H72.3438V32.6513H72.2671C72.1265 32.924 71.9284 33.1797 71.6727 33.4183C71.4213 33.6527 71.1038 33.8423 70.7203 33.9872C70.341 34.1278 69.8957 34.1982 69.3843 34.1982ZM69.9852 32.4979C70.4497 32.4979 70.8524 32.4062 71.1933 32.223C71.5342 32.0355 71.7963 31.7884 71.9795 31.4815C72.167 31.1747 72.2607 30.8402 72.2607 30.478V29.321C72.1883 29.3807 72.0647 29.4361 71.89 29.4872C71.7195 29.5384 71.5278 29.5831 71.3147 29.6214C71.1017 29.6598 70.8907 29.6939 70.6819 29.7237C70.4731 29.7536 70.292 29.7791 70.1386 29.8004C69.7934 29.8473 69.4845 29.924 69.2117 30.0305C68.939 30.1371 68.7238 30.2862 68.5661 30.478C68.4085 30.6655 68.3296 30.9084 68.3296 31.2067C68.3296 31.6328 68.4852 31.9545 68.7963 32.1719C69.1073 32.3892 69.5036 32.4979 69.9852 32.4979ZM77.9816 37.6818C77.6663 37.6818 77.3744 37.6563 77.1059 37.6051C76.8417 37.5582 76.6308 37.5028 76.4731 37.4389L77.01 35.6364C77.3467 35.7344 77.6471 35.7813 77.9113 35.777C78.1755 35.7727 78.4078 35.6896 78.608 35.5277C78.8126 35.37 78.9852 35.1058 79.1258 34.7351L79.324 34.2045L75.7636 24.1818H78.2181L80.4809 31.5966H80.5832L82.8524 24.1818H85.3133L81.3822 35.1889C81.199 35.7088 80.9561 36.1541 80.6535 36.5249C80.3509 36.8999 79.9802 37.1854 79.5413 37.3814C79.1066 37.5817 78.5867 37.6818 77.9816 37.6818Z" fill="#1663C1"/>
</svg>
